<svg width="42" height="42" viewBox="0 0 42 42" fill="none" xmlns="http://www.w3.org/2000/svg">
<path d="M27.5625 9.51562C25.7173 9.51562 24.0126 10.1282 22.6406 11.1604V7.875C22.6406 6.96888 21.9061 6.23438 21 6.23438C20.0939 6.23438 19.3594 6.96888 19.3594 7.875V11.1604C17.9874 10.1282 16.2827 9.51562 14.4375 9.51562C13.5314 9.51562 12.7969 10.2501 12.7969 11.1562V14.4375C12.7969 17.1514 15.0048 19.3594 17.7188 19.3594H19.3594V24.2854C17.9874 23.2532 16.2827 22.6406 14.4375 22.6406C13.5314 22.6406 12.7969 23.3751 12.7969 24.2812V27.5625C12.7969 30.2764 15.0048 32.4844 17.7188 32.4844H19.3594V34.125C19.3594 35.0311 20.0939 35.7656 21 35.7656C21.9061 35.7656 22.6406 35.0311 22.6406 34.125V32.4844H24.2812C26.9952 32.4844 29.2031 30.2764 29.2031 27.5625V24.2812C29.2031 23.3751 28.4686 22.6406 27.5625 22.6406C25.7173 22.6406 24.0126 23.2532 22.6406 24.2854V19.3594H24.2812C26.9952 19.3594 29.2031 17.1514 29.2031 14.4375V11.1562C29.2031 10.2501 28.4686 9.51562 27.5625 9.51562ZM17.7188 16.0781C16.8141 16.0781 16.0781 15.3421 16.0781 14.4375V13.078C17.4745 13.5731 18.5831 14.6816 19.0783 16.0781H17.7188ZM17.7188 29.2031C16.8141 29.2031 16.0781 28.4671 16.0781 27.5625V26.203C17.4745 26.6981 18.5831 27.8066 19.0783 29.2031H17.7188ZM25.9219 26.203V27.5625C25.9219 28.4671 25.1859 29.2031 24.2812 29.2031H22.9217C23.4169 27.8067 24.5255 26.6981 25.9219 26.203ZM25.9219 14.4375C25.9219 15.3421 25.1859 16.0781 24.2812 16.0781H22.9217C23.4169 14.6817 24.5254 13.5731 25.9219 13.078V14.4375Z" fill="#052D24"/>
<path d="M39.0469 4.92188C39.0469 2.20795 36.8389 0 34.125 0C32.9497 0 31.8145 0.425742 30.9286 1.1988C30.5012 1.57172 29.9208 1.6969 29.3759 1.53374C25.9795 0.516059 23.1615 0 21 0C18.8385 0 16.0205 0.516059 12.6241 1.53374C12.0873 1.69444 11.4925 1.56622 11.0714 1.1988C10.1855 0.425742 9.05026 0 7.875 0C5.16108 0 2.95312 2.20795 2.95312 4.92188C2.95312 6.19336 3.44556 7.39405 4.33986 8.30288C4.74001 8.70959 4.90104 9.30661 4.76011 9.86089C3.86654 13.3749 2.95312 17.4463 2.95312 21C2.95312 24.5537 3.86654 28.6251 4.76011 32.1392C4.90104 32.6935 4.74001 33.2905 4.33978 33.6972C3.44556 34.6059 2.95312 35.8066 2.95312 37.0781C2.95312 39.792 5.16108 42 7.875 42C9.05002 42 10.1852 41.5743 11.0713 40.801C11.4986 40.4281 12.0791 40.3029 12.6239 40.4661C16.0203 41.4839 18.8384 42 21 42C23.1616 42 25.9797 41.4839 29.376 40.4662C29.9126 40.3054 30.5077 40.4337 30.9287 40.8011C31.8148 41.5743 32.95 42 34.125 42C36.8389 42 39.0469 39.792 39.0469 37.0781C39.0469 35.8066 38.5544 34.6059 37.6601 33.6971C37.26 33.2904 37.099 32.6934 37.2399 32.1391C38.1335 28.6251 39.0469 24.5537 39.0469 21C39.0469 17.4463 38.1335 13.3749 37.2399 9.86089C37.099 9.30661 37.26 8.70959 37.6602 8.30288C38.5544 7.39405 39.0469 6.19336 39.0469 4.92188ZM34.0599 10.6696C34.854 13.7928 35.7656 17.7895 35.7656 21C35.7656 24.2105 34.854 28.2072 34.0599 31.3305C33.6378 32.9902 34.1212 34.7789 35.3213 35.9985C35.524 36.2045 35.7656 36.559 35.7656 37.0781C35.7656 37.9828 35.0296 38.7188 34.125 38.7188C33.6358 38.7188 33.2899 38.5066 33.086 38.3287C32.1739 37.5329 31.0305 37.113 29.8592 37.113C29.3843 37.113 28.9047 37.1821 28.4342 37.3231C25.3871 38.2361 22.8164 38.7188 21 38.7188C19.1836 38.7188 16.6129 38.2361 13.5658 37.323C11.9349 36.8342 10.1959 37.2102 8.91409 38.3286C8.71008 38.5066 8.36423 38.7188 7.875 38.7188C6.97036 38.7188 6.23438 37.9828 6.23438 37.0781C6.23438 36.559 6.47596 36.2045 6.67874 35.9985C7.87886 34.7788 8.36218 32.9901 7.94013 31.3305C7.14599 28.2072 6.23438 24.2105 6.23438 21C6.23438 17.7895 7.14599 13.7928 7.94013 10.6695C8.36218 9.00982 7.87877 7.22113 6.67866 6.00149C6.47596 5.79551 6.23438 5.44097 6.23438 4.92188C6.23438 4.01723 6.97036 3.28125 7.875 3.28125C8.36448 3.28125 8.71024 3.4933 8.91409 3.67123C10.1959 4.78972 11.9351 5.16559 13.5659 4.67693C16.6131 3.76384 19.1837 3.28125 21 3.28125C22.8163 3.28125 25.3869 3.76384 28.434 4.67693C30.0649 5.16567 31.8041 4.78972 33.0859 3.67123C33.2898 3.4933 33.6355 3.28125 34.125 3.28125C35.0296 3.28125 35.7656 4.01723 35.7656 4.92188C35.7656 5.44097 35.524 5.79551 35.3213 6.00149C34.1211 7.22121 33.6378 9.0099 34.0599 10.6696Z" fill="#052D24"/>
</svg>
